<?xml version="1.0" encoding="UTF-8" standalone="no"?>
<svg
   xmlns:rdf="http://www.w3.org/1999/02/22-rdf-syntax-ns#"
   xmlns:svg="http://www.w3.org/2000/svg"
   xmlns="http://www.w3.org/2000/svg"
   viewBox="0 0 1066.6667 1066.6667"
   height="1066.6667"
   width="1066.6667"
   xml:space="preserve"
   id="svg2"
   version="1.1"><defs
     id="defs6"><clipPath
       id="clipPath18"
       clipPathUnits="userSpaceOnUse"><path
         id="path16"
         d="M 0,800 H 800 V 0 H 0 Z" /></clipPath></defs><g
     transform="matrix(1.3333333,0,0,-1.3333333,0,1066.6667)"
     id="g10"><g
       id="g12"><g
         clip-path="url(#clipPath18)"
         id="g14"><g
           transform="translate(800,400.0048)"
           id="g20"><path
             id="path22"
             style="fill:#d20a11;fill-opacity:1;fill-rule:evenodd;stroke:none"
             d="m 0,0 c 0,-221.055 -179.092,-400.024 -400,-400.024 -220.876,0 -400,178.969 -400,400.024 0,220.891 179.124,400.014 400,400.014 C -179.092,400.014 0,220.891 0,0" /></g><g
           transform="translate(225.4667,593.6382)"
           id="g24"><path
             id="path26"
             style="fill:#ffffff;fill-opacity:1;fill-rule:evenodd;stroke:none"
             d="m 0,0 v -137.249 c 20.892,24.909 45.94,37.457 74.989,37.457 14.958,0 28.371,-2.844 40.378,-8.529 12.053,-5.625 21.077,-12.856 27.15,-21.634 6.118,-8.854 10.259,-18.559 12.486,-29.252 2.224,-10.63 3.337,-27.195 3.337,-49.648 V -355.628 H 93.409 v 132.187 c 0,26.222 -1.174,42.849 -3.647,49.895 -2.472,7.108 -6.799,12.686 -13.042,16.812 -6.242,4.219 -14.03,6.304 -23.426,6.304 -10.755,0 -20.412,-2.704 -28.803,-8.035 -8.56,-5.376 -14.726,-13.412 -18.619,-24.167 -3.972,-10.755 -5.95,-26.64 -5.872,-47.67 l -0.078,-125.326 h -64.838 l 0,355.628 z" /></g><g
           transform="translate(481.1257,593.6382)"
           id="g28"><path
             id="path30"
             style="fill:#ffffff;fill-opacity:1;fill-rule:evenodd;stroke:none"
             d="m 0,0 v -137.249 c 20.891,24.909 45.924,37.457 74.975,37.457 14.912,0 28.385,-2.844 40.454,-8.529 11.991,-5.625 21.015,-12.856 27.072,-21.634 6.12,-8.854 10.261,-18.559 12.486,-29.252 2.225,-10.63 3.337,-27.195 3.337,-49.648 V -355.628 H 93.471 v 132.187 c 0,26.222 -1.22,42.849 -3.709,49.895 -2.472,7.108 -6.783,12.686 -13.057,16.812 -6.181,4.219 -14.031,6.304 -23.425,6.304 -10.755,0 -20.398,-2.704 -28.803,-8.035 C 16.008,-163.841 9.828,-171.877 5.872,-182.632 1.978,-193.387 0,-209.272 0,-230.302 V -355.628 H -64.869 V 0 Z" /></g></g></g></g></svg>